<svg enable-background="new 0 0 62 44" height="44" viewBox="0 0 62 44" width="62" xmlns="http://www.w3.org/2000/svg">
    <path d="m0 0h62v44h-62z" fill="none" />
    <path
        d="m.49 23.0293v-.6973h2.6367v.8496h-1.5937v.0703c0 1.248.7852 1.9805 1.9395 1.9805 1.3477 0 2.0508-.9961 2.0508-2.584 0-1.623-.7324-2.584-2.0566-2.584-.8906 0-1.6699.4336-1.8398 1.3008h-1.043c.2637-1.459 1.4473-2.2148 2.8828-2.2148 1.9043 0 3.0996 1.3301 3.0996 3.498 0 2.0566-1.0723 3.498-3.0879 3.498-1.8224.0001-2.9884-1.1542-2.9884-3.1171zm4.7607 4.6758c0-.1641-.1816-.1992-.3281-.1992-.0879 0-.2109.0117-.2461.0176v-.7325c.1699-.0469.4043-.0703.5801-.0703.5801 0 .9668.2461.9668.6914v1.752h-.9727zm2.5523-4.1074v-4.3301h1.0312v4.3301c0 1.043.7324 1.6289 1.752 1.6289 1.002 0 1.7578-.5977 1.7578-1.6289v-6.6094h1.0312v6.6094c0 1.5996-1.2129 2.543-2.7891 2.543-1.6171-.0001-2.7831-.9552-2.7831-2.543zm7.2744.123c0-.8379.2344-1.3594.9316-1.6172v-.0352h-1.3711v-.3457c0-1.582 1.2305-2.5723 2.959-2.5723 1.5996 0 2.8477.8438 2.8477 2.5547v4.295h-1.0312v-4.1777c0-1.1895-.6797-1.7637-1.8574-1.7637-1.0957 0-1.8691.4922-1.9336 1.3945h1.5586v.7148c-.8086.1465-1.0723.5566-1.0723 1.3711v2.461h-1.0312v-2.2793zm6.5947.4219h1.0781c.1699.7324.7852 1.1016 1.7168 1.1016.8965 0 1.4297-.3398 1.4297-.9961 0-.5215-.3457-.8086-1.2598-1.0547l-.873-.2344c-1.3594-.3633-1.916-.9551-1.916-1.8926 0-1.3301 1.1133-1.916 2.4199-1.916 1.4297 0 2.4961.709 2.5488 1.9043h-1.0781c-.0352-.6211-.5977-1.002-1.5059-1.002-.7793 0-1.3535.2812-1.3535.9434 0 .668.5742.9023 1.418 1.1367l.8438.2344c1.1133.3105 1.7988.7852 1.7988 1.8574 0 1.2188-.9316 1.9219-2.4492 1.9219-1.5762 0-2.6543-.7207-2.8184-2.0039zm10.7256-.3516v-1.9688c0-1.1895-.6621-1.7637-1.7695-1.7637-1.0723 0-1.6758.5391-1.7285 1.3945h1.5352v.7148c-.9023.1465-1.2246.5566-1.2246 1.3711v.6328c0 .7969.2812.9961 1.002.9961.123 0 .2168-.0059.2812-.0176v.8555c-.1289.0234-.4102.0293-.5508.0293-1.2773 0-1.7637-.5039-1.7637-1.8457v-.4688c0-.8379.293-1.418.9902-1.6758v-.0352h-1.2539v-.2575c0-1.5645 1.0547-2.6016 2.748-2.6016 1.5234 0 2.7656.8438 2.7656 2.4961v2.0859c0 .9199.5918 1.4004 1.418 1.4004 1.0488 0 1.7461-.7734 1.7461-1.834v-4.0312h1.0312v6.7324h-1.0312v-1.002h-.0352c-.2754.5918-.9902 1.0723-1.998 1.0723-1.3535 0-2.1621-.873-2.1621-2.2793zm2.8511-5.543c0-.9785.5156-1.4883 1.5117-1.4883h1.3359v.8789h-1.1777c-.4219 0-.6387.2168-.6387.6328v.1582h-1.0312zm4.0225 6.1582v-5.1387h1.0312v5.1387c0 .5977.1641.7559.6621.7559.0938 0 .2109-.0059.3164-.0176v.8613c-.0879.0176-.2871.0293-.3047.0293-1.3359.0001-1.705-.416-1.705-1.6289zm8.3466-4.0957c.1934.2871.2871.6562.2871 1.0723v4.6172h-1.0312v-3.0645l-2.209.1875c-.6855.0586-1.2715.3398-1.2715 1.0605 0 .6094.416 1.002 1.2891 1.002.2812 0 .5508-.041.8145-.123v.8555c-.3457.1113-.6973.1699-1.0547.1699-1.1133 0-2.0918-.5801-2.0918-1.9043 0-1.043.6094-1.7988 2.1152-1.9277l2.4082-.2051v-.6328c0-.8906-.6152-1.3535-1.5996-1.3535-.9551 0-1.6172.4336-1.7051 1.2305h-1.043c.0645-1.3652 1.1836-2.1445 2.748-2.1445.668 0 1.2598.1406 1.6816.5039l.4922-.5977h1.2832zm1.5147 3.8321h1.0781c.1699.7324.7852 1.1016 1.7168 1.1016.8965 0 1.4297-.3398 1.4297-.9961 0-.5215-.3457-.8086-1.2598-1.0547l-.873-.2344c-1.3594-.3633-1.916-.9551-1.916-1.8926 0-1.3301 1.1133-1.916 2.4199-1.916 1.4297 0 2.4961.709 2.5488 1.9043h-1.0781c-.0352-.6211-.5977-1.002-1.5059-1.002-.7793 0-1.3535.2812-1.3535.9434 0 .668.5742.9023 1.418 1.1367l.8438.2344c1.1133.3105 1.7988.7852 1.7988 1.8574 0 1.2188-.9316 1.9219-2.4492 1.9219-1.5762 0-2.6544-.7207-2.8184-2.0039zm-.395-6.5684h5.209v.8555h-5.209zm7.8545 7.3067h-.0352v1.1191h-.9961v-6.7324h1.0312v3.7969c0 1.2832.8027 2.0684 1.9336 2.0684.832 0 1.5234-.4277 1.5234-1.6055v-4.2598h1.0312v4.4121c0 1.5469-.9258 2.3906-2.3496 2.3906-.996 0-1.6757-.416-2.1385-1.1894z"
        fill="#fff" />
</svg>