<svg enable-background="new 0 0 53 44" height="44" viewBox="0 0 53 44" width="53" xmlns="http://www.w3.org/2000/svg">
    <path d="m0 0h53v44h-53z" fill="none" />
    <path
        d="m18 24.4062v-5.1387h1.0312v5.1387c0 .5977.1641.7559.6621.7559.0938 0 .2109-.0059.3164-.0176v.8613c-.0879.0176-.2871.0293-.3047.0293-1.3359.0001-1.705-.416-1.705-1.6289zm2.9297 0v-5.1387h1.0312v5.1387c0 .5977.1641.7559.6621.7559.0938 0 .2109-.0059.3164-.0176v.8613c-.0879.0176-.2871.0293-.3047.0293-1.3359.0001-1.705-.416-1.705-1.6289zm2.7861-.2226c0-1.043.6094-1.7988 2.1152-1.9277l2.4082-.2051v-.6328c0-.8906-.6152-1.3535-1.5996-1.3535-.9551 0-1.6172.4336-1.7051 1.2305h-1.043c.0645-1.3652 1.1836-2.1445 2.748-2.1445 1.5059 0 2.6309.7207 2.6309 2.2324v4.6171h-1.0312v-3.0645l-2.209.1875c-.6855.0586-1.2715.3398-1.2715 1.0605 0 .6094.416 1.002 1.2891 1.002.2812 0 .5508-.041.8145-.123v.8555c-.3457.1113-.6973.1699-1.0547.1699-1.1133 0-2.0918-.5801-2.0918-1.9043zm6.7822-3.5215v-.2871h1.0195v.2285c0 .4102.1934.4922.5215.4922h1.3125v.8555h-1.4062c-.9258 0-1.4473-.3047-1.4473-1.2891zm0 3.5449v-.2871h1.0195v.2285c0 .4102.1934.4922.5215.4922h1.3125v.8555h-1.4062c-.9258 0-1.4473-.3047-1.4473-1.2891zm3.9639-.6093v-4.3301h1.0312v4.3301c0 1.0371.7031 1.6289 1.7227 1.6289.9727 0 1.7285-.6035 1.7285-1.6289v-4.3301h1.0312v4.3301c0 1.5938-1.2129 2.543-2.7598 2.543-1.6171-.0001-2.7538-.961-2.7538-2.543zm3.1089-5.8184c0-.293-.082-.3926-.4277-.3926h-.3047v-.8613h.9375c.5215 0 .7676.2812.7676.75v.2988h1.9277v.8555h-2.9004zm7.2334 3.6328c0-.9785-.6094-1.3535-1.4238-1.3535-.8906 0-1.4414.4512-1.5 1.2363h-1.0664c.0879-1.3477 1.1074-2.1445 2.5664-2.1445 1.4297 0 2.4551.7676 2.4551 2.2617v4.5879h-1.0312v-4.5879zm2.6572 2.2676v-4.4121h1.0312v4.2598c0 1.1777.6914 1.6055 1.5234 1.6055 1.1309 0 1.9336-.7852 1.9336-2.0684v-3.7969h1.0312v6.7324h-.9961v-1.1191h-.0352c-.4629.7734-1.1426 1.1895-2.1387 1.1895-1.4236-.0001-2.3494-.8438-2.3494-2.3907zm-44.466 2.3203v-7.5059h-2.7246v-.9492h6.5039v.9492h-2.7246v7.5059zm7.7314 0-3.1172-8.4551h1.1074l2.4844 7.0898h.0938l2.4844-7.0898h1.1074l-3.1172 8.4551z"
        fill="#fff" />
</svg>