<svg enable-background="new 0 0 70 44" height="44" viewBox="0 0 70 44" width="70" xmlns="http://www.w3.org/2000/svg">
    <path d="m0 0h70v44h-70z" fill="none" />
    <path
        d="m1.0358 24.4062v-5.1387h1.0312v5.1387c0 .5977.1641.7559.6621.7559.0938 0 .2109-.0059.3164-.0176v.8613c-.0879.0176-.2871.0293-.3047.0293-1.3358.0001-1.705-.416-1.705-1.6289zm3.5596-.3164v-.3574c0-.252-.1289-.293-.2754-.293-.082 0-.1816.0117-.2988.0352v-.9023c.2461-.0645.4395-.0762.5801-.0762.498 0 1.0254.1523 1.0254.8613v.5801c0 .8262.4512 1.1953 1.248 1.1953 1.1484 0 1.9746-.7734 1.9746-2.0684v-1.1309c0-1.0605-.5332-1.875-1.9043-1.875-.9434 0-1.6523.3867-1.793 1.0605h-1.043c.1758-1.2715 1.3242-1.9688 2.877-1.9688 1.9746 0 2.8945 1.1309 2.8945 2.7305v4.1193h-1.0312v-1.1191h-.0351c-.4395.7207-1.207 1.1895-2.1797 1.1895-1.2071-.0001-2.0391-.7266-2.0391-1.9806zm7.1987-3.5156c0-.3398-.0938-.4395-.4043-.4395-.0762 0-.2344.0059-.2812.0117v-.8613c.1289-.0176.3516-.0234.4863-.0234.9258 0 1.207.2871 1.207 1.2539v3.8262h.0352l1.6113-4.0781h.8379l1.5234 4.0781h.0352v-5.0742h1.0078v6.7324h-1.2715l-1.7344-4.4355h-.0468l-1.7344 4.4355h-1.2715zm11.042.8379c0-.9785-.6094-1.3535-1.4238-1.3535-.8906 0-1.4414.4512-1.5 1.2363h-1.0664c.0879-1.3477 1.1074-2.1445 2.5664-2.1445 1.4297 0 2.4551.7676 2.4551 2.2617v4.5879h-1.0312v-4.5879zm2.3057-.75v-.2871h1.0195v.2285c0 .4102.1934.4922.5215.4922h1.3125v.8555h-1.4062c-.9258 0-1.4473-.3047-1.4473-1.2891zm0 3.5449v-.2871h1.0195v.2285c0 .4102.1934.4922.5215.4922h1.3125v.8555h-1.4062c-.9258 0-1.4473-.3047-1.4473-1.2891zm3.999-4.9394h1.0312v1.1191h.0352c.4453-.7441 1.0957-1.1895 2.0801-1.1895 1.4121 0 2.3965.873 2.3965 2.4258v4.377h-1.0312v-4.207c0-1.1777-.6797-1.6582-1.6113-1.6582-1.1426 0-1.8691.7734-1.8691 2.0684v3.7968h-1.0312v-6.7324zm.2144-1.6934h4.1719v-.8379h1.0371v1.6934h-5.209zm4.1448-3.9191h1.0312v2.0449h-1.0312zm9.3656 9.925h-3.3633l-.8496 2.4199h-1.1074l3.1172-8.4551h1.043l3.1172 8.4551h-1.1074zm-3.0527-.8965h2.7422l-1.3242-3.7734h-.0938zm11.9736.1582c0 1.9746-1.0488 3.2695-2.6543 3.2695-.9023 0-1.6289-.3926-1.9746-1.0605h-.0938v3.0586h-1.0078v-8.4258h.9609v1.0547h.0938c.4043-.7266 1.1602-1.166 2.0215-1.166 1.6114 0 2.6543 1.2832 2.6543 3.2695zm-1.0429 0c0-1.4766-.6914-2.3613-1.8457-2.3613-1.1426 0-1.8633.9082-1.8633 2.3613 0 1.4473.7207 2.3613 1.8574 2.3613 1.1601 0 1.8516-.8847 1.8516-2.3613zm8.2353 0c0 1.9746-1.0488 3.2695-2.6543 3.2695-.9023 0-1.6289-.3926-1.9746-1.0605h-.0938v3.0586h-1.0078v-8.4258h.9609v1.0547h.0938c.4043-.7266 1.1602-1.166 2.0215-1.166 1.6113 0 2.6543 1.2832 2.6543 3.2695zm-1.043 0c0-1.4766-.6914-2.3613-1.8457-2.3613-1.1426 0-1.8633.9082-1.8633 2.3613 0 1.4473.7207 2.3613 1.8574 2.3613 1.1602 0 1.8516-.8847 1.8516-2.3613zm2.5635-5.666h1.0078v8.8242h-1.0078zm8.0366 7.1894c-.293 1.0781-1.2773 1.7461-2.6602 1.7461-1.752 0-2.8477-1.2656-2.8477-3.2637 0-1.9863 1.1133-3.2754 2.8477-3.2754 1.7051 0 2.7422 1.2129 2.7422 3.1758v.3867h-4.541v.0469c.0527 1.248.75 2.0391 1.8223 2.0391.8145 0 1.3652-.2988 1.6289-.8555zm-4.459-2.0449h3.4805c-.0234-1.1191-.6914-1.8574-1.6934-1.8574-1.0078 0-1.7109.7383-1.7871 1.8574z"
        fill="#fff" />
</svg>