<svg enable-background="new 0 0 113 43" height="43" viewBox="0 0 113 43" width="113" xmlns="http://www.w3.org/2000/svg">
    <path d="m0 0h113v43h-113z" fill="none" />
    <path
        d="m1.9653 23.6392v-6.1343h1.4609v6.1343c0 1.4692.9961 2.3076 2.4404 2.3076 1.3779 0 2.4487-.855 2.4487-2.3076v-6.1343h1.4609v6.1343c0 2.2578-1.7183 3.6025-3.9097 3.6025-2.2908 0-3.9012-1.3613-3.9012-3.6025zm9.7202.7719h1.5273c.2407 1.0376 1.1123 1.5605 2.4321 1.5605 1.27 0 2.0254-.4814 2.0254-1.4111 0-.7388-.4897-1.1455-1.7847-1.4941l-1.2368-.332c-1.9258-.5146-2.7144-1.353-2.7144-2.6812 0-1.8843 1.5771-2.7144 3.4282-2.7144 2.0254 0 3.5361 1.0044 3.6108 2.6978h-1.5273c-.0498-.8799-.8467-1.4194-2.1333-1.4194-1.104 0-1.9175.3984-1.9175 1.3364 0 .9463.8135 1.2783 2.0088 1.6104l1.1953.332c1.5771.4399 2.5483 1.1123 2.5483 2.6313 0 1.7266-1.3198 2.7227-3.4697 2.7227-2.2327 0-3.76-1.021-3.9925-2.8389zm-.4067-8.0932v-1.2119h7.3794v1.2119zm9.9775 10.7246v-3.229c0-1.187.332-1.9258 1.3198-2.291v-.0498h-1.9424v-.4897c0-2.2412 1.7432-3.644 4.1919-3.644 2.2661 0 4.0342 1.1953 4.0342 3.6191v6.0845h-1.4609v-5.9186c0-1.6851-.9629-2.4985-2.6313-2.4985-1.5522 0-2.6479.6973-2.7393 1.9756h2.208v1.0127c-1.1455.2075-1.519.7886-1.519 1.9424v3.4863zm14.7837 0v-6.4995c0-1.3862-.8633-1.9175-2.0171-1.9175-1.2617 0-2.042.6392-2.125 1.7515h-1.5107c.1245-1.9092 1.5688-3.0381 3.6357-3.0381 2.0254 0 3.478 1.0874 3.478 3.2041v6.4995zm3.4366-2.6314h1.5273c.2407 1.0376 1.1123 1.5605 2.4321 1.5605 1.27 0 2.0254-.4814 2.0254-1.4111 0-.7388-.4897-1.1455-1.7847-1.4941l-1.2368-.332c-1.9258-.5146-2.7144-1.353-2.7144-2.6812 0-1.8843 1.5771-2.7144 3.4282-2.7144 2.0254 0 3.5361 1.0044 3.6108 2.6978h-1.5273c-.0498-.8799-.8467-1.4194-2.1333-1.4194-1.104 0-1.9175.3984-1.9175 1.3364 0 .9463.8135 1.2783 2.0088 1.6104l1.1953.332c1.5771.4399 2.5483 1.1123 2.5483 2.6313 0 1.7266-1.3198 2.7227-3.4697 2.7227-2.2328 0-3.7601-1.021-3.9925-2.8389zm9.3964-.6225v-.8384c0-.9795.4731-1.6851.8882-2.291.3154-.4648.5312-.8882.5312-1.2949 0-.5229-.3486-.6807-.8467-.6807-.2739 0-.5063.0498-.7388.1328v-1.27c.1494-.0581.5063-.1245.9629-.1245 1.3115 0 2.0337.5312 2.0337 1.7515 0 .7222-.2573 1.27-.6558 1.876-.3569.5479-.7305 1.1289-.7305 1.9009v.855c0 1.3115.7637 2.1665 2.1914 2.1665 1.4194 0 2.2578-.855 2.2578-2.1665v-1.2036c0-1.0044-.6558-1.5771-1.6187-1.5771h-.3652v-1.2285h.3652c.8384 0 1.5024-.6309 1.5024-1.4941v-.7969h1.4609v.7969c0 1.1704-.5396 1.7183-1.4028 2.0586v.0664c.9463.2407 1.5024 1.0044 1.5024 2.1748v1.187c0 2.1084-1.4692 3.4614-3.7271 3.4614-2.2657-.0002-3.6105-1.3532-3.6105-3.4616zm5.7857-7.4707v-2.897h1.4609v2.897zm3.6191 8.1015h1.4277c.2822.9463 1.0625 1.5522 2.2993 1.5522 1.8179 0 2.7393-1.4277 2.7393-3.6689 0-2.2993-.9712-3.6855-2.7144-3.6855-1.2368 0-2.208.6309-2.4321 1.8594h-1.3945c.2822-1.9009 1.6851-3.1377 3.835-3.1377 2.5732 0 4.1836 1.8843 4.1836 4.9307 0 2.9219-1.4775 4.9805-4.1753 4.9805-2.0503-.0001-3.395-1.1207-3.7686-2.8307zm12.4097 2.6231c-1.5356 0-2.7393-1.0376-2.7393-2.5898 0-1.2036.7305-2.0835 1.8677-2.4072v-.0498c-.9961-.2324-1.6187-1.1123-1.6187-2.1831 0-1.3613 1.0044-2.3076 2.4653-2.3076h1.9258v1.2783h-1.6353c-.8384 0-1.3779.5229-1.3779 1.2949 0 .8384.6309 1.3032 1.3945 1.3032h1.6187v1.2617h-1.3945c-1.0376 0-1.6519.6392-1.6519 1.5273 0 .9878.7471 1.5854 1.6851 1.5854h3.0879v-8.251h1.4609v9.5376h-5.0883zm7.7612-2.2578v-7.2798h1.4609v7.2798c0 .8467.2324 1.0708.938 1.0708.1328 0 .2988-.0083.4482-.0249v1.2202c-.1245.0249-.4067.0415-.4316.0415-1.8925 0-2.4155-.5894-2.4155-2.3076zm4.9307 2.2578v-9.5376h1.4609v3.1377h2.3657c1.5356 0 2.2993-.772 2.2993-2.4819v-.6558h1.4609v.6558c0 1.7266-.606 2.6729-1.959 2.9883v.0332c1.519.2324 1.959 1.1289 1.959 2.623v3.2373h-1.4609v-3.0464c0-1.4277-.5562-2.0586-2.0918-2.0586h-2.5732v5.105zm9.6123-2.5733c0-1.4775.8633-2.5483 2.9966-2.731l3.4116-.2905v-.8965c0-1.2617-.8716-1.9175-2.2661-1.9175-1.353 0-2.291.6143-2.4155 1.7432h-1.4775c.0913-1.9341 1.6768-3.0381 3.8931-3.0381 2.1333 0 3.7271 1.021 3.7271 3.1626v6.541h-1.4609v-4.3413l-3.1294.2656c-.9712.083-1.8013.4814-1.8013 1.5024 0 .8633.5894 1.4194 1.8262 1.4194.3984 0 .7803-.0581 1.1538-.1743v1.2119c-.4897.1577-.9878.2407-1.4941.2407-1.5774.0002-2.9636-.8216-2.9636-2.6976zm.3237-8.1513v-1.2119h3.5942v-1.187h1.4609v1.187h.8633v-1.187h1.4609v2.3989zm9.6704 6.5161v-.9878h3.7354v1.2036h-2.2578v.0996c0 1.7681 1.1123 2.8057 2.7476 2.8057 1.9092 0 2.9053-1.4111 2.9053-3.6606 0-2.2993-1.0376-3.6606-2.9136-3.6606-1.2617 0-2.3657.6143-2.6064 1.8428h-1.4775c.3735-2.0669 2.0503-3.1377 4.084-3.1377 2.6978 0 4.3911 1.8843 4.3911 4.9556 0 2.9136-1.519 4.9556-4.3745 4.9556-2.5817-.0002-4.2336-1.6355-4.2336-4.4162z"
        fill="#fff" />
</svg>