<svg enable-background="new 0 0 91 43" height="43" viewBox="0 0 91 43" width="91" xmlns="http://www.w3.org/2000/svg">
    <path d="m0 0h91v43h-91z" fill="none" />
    <path
        d="m1.9214 22.7915v-.9878h3.7354v1.2036h-2.2579v.0996c0 1.7681 1.1123 2.8057 2.7476 2.8057 1.9092 0 2.9053-1.4111 2.9053-3.6606 0-2.2993-1.0376-3.6606-2.9136-3.6606-1.2617 0-2.3657.6143-2.6064 1.8428h-1.4776c.3735-2.0669 2.0503-3.1377 4.084-3.1377 2.6978 0 4.3911 1.8843 4.3911 4.9556 0 2.9136-1.519 4.9556-4.3745 4.9556-2.5816-.0002-4.2334-1.6354-4.2334-4.4162zm6.9145 8.6909v-2.0669c0-.2324-.2573-.2822-.4648-.2822-.1245 0-.2988.0166-.3486.0249v-1.0376c.2407-.0664.5728-.0996.8218-.0996.8218 0 1.3696.3486 1.3696.9795v2.4819zm3.7852-7.8857v-6.1343h1.4609v6.1343c0 1.4775 1.0376 2.3076 2.4819 2.3076 1.4194 0 2.4902-.8467 2.4902-2.3076v-9.3633h1.4609v9.3633c0 2.2661-1.7183 3.6025-3.9512 3.6025-2.2909 0-3.9427-1.353-3.9427-3.6025zm10.4756 3.4033v-3.229c0-1.187.332-1.9258 1.3198-2.291v-.0498h-1.9424v-.4897c0-2.2412 1.7432-3.644 4.1919-3.644 2.2661 0 4.0342 1.1953 4.0342 3.6191v6.0844h-1.4609v-5.9185c0-1.6851-.9629-2.4985-2.6313-2.4985-1.5522 0-2.6479.6973-2.7393 1.9756h2.208v1.0127c-1.1455.2075-1.519.7886-1.519 1.9424v3.4863zm9.5127-2.6313h1.5273c.2407 1.0376 1.1123 1.5605 2.4321 1.5605 1.27 0 2.0254-.4814 2.0254-1.4111 0-.7388-.4897-1.1455-1.7847-1.4941l-1.2368-.332c-1.9258-.5146-2.7144-1.353-2.7144-2.6812 0-1.8843 1.5771-2.7144 3.4282-2.7144 2.0254 0 3.5361 1.0044 3.6108 2.6978h-1.5273c-.0498-.8799-.8467-1.4194-2.1333-1.4194-1.104 0-1.9175.3984-1.9175 1.3364 0 .9463.8135 1.2783 2.0088 1.6104l1.1953.332c1.5771.4399 2.5483 1.1123 2.5483 2.6313 0 1.7266-1.3198 2.7227-3.4697 2.7227-2.2328-.0001-3.7601-1.0211-3.9925-2.8389zm15.3647-.4981v-2.7891c0-1.6851-.938-2.4985-2.5068-2.4985-1.519 0-2.374.7637-2.4487 1.9756h2.1748v1.0127c-1.2783.2075-1.7349.7886-1.7349 1.9424v.8965c0 1.1289.3984 1.4111 1.4194 1.4111.1743 0 .3071-.0083.3984-.0249v1.2119c-.1826.0332-.5811.0415-.7803.0415-1.8096 0-2.4985-.7139-2.4985-2.6147v-.6641c0-1.187.415-2.0088 1.4028-2.374v-.0498h-1.7763v-.3652c0-2.2163 1.4941-3.6855 3.8931-3.6855 2.1582 0 3.918 1.1953 3.918 3.5361v2.9551c0 1.3032.8384 1.9839 2.0088 1.9839 1.4858 0 2.4736-1.0957 2.4736-2.5981v-5.7109h1.4609v9.5374h-1.4609v-1.4194h-.0498c-.3901.8384-1.4028 1.519-2.8306 1.519-1.9175 0-3.063-1.2368-3.063-3.229zm4.2085-7.5952v-.2573c0-1.3862.7305-2.1084 2.1416-2.1084h1.8926v1.2451h-1.6685c-.5977 0-.9048.3071-.9048.8965v.2241zm5.8687 8.4668v-7.2798h1.4609v7.2798c0 .8467.2324 1.0708.938 1.0708.1328 0 .2988-.0083.4482-.0249v1.2202c-.1245.0249-.4067.0415-.4316.0415-1.8926 0-2.4155-.5894-2.4155-2.3076zm13.5717-7.5786-1.5771 1.7764c.2739.4067.4067.9297.4067 1.519v6.541h-1.4609v-4.3413l-3.1294.2656c-.9712.083-1.8013.4814-1.8013 1.5024 0 .8633.5894 1.4194 1.8262 1.4194.3984 0 .7803-.0581 1.1538-.1743v1.2119c-.4897.1577-.9878.2407-1.4941.2407-1.5771 0-2.9634-.8218-2.9634-2.6978 0-1.4775.8633-2.5483 2.9966-2.731l3.4116-.2905v-.8965c0-1.2617-.8716-1.9175-2.2661-1.9175-1.353 0-2.291.6143-2.4155 1.7432h-1.4775c.0913-1.9341 1.6768-3.0381 3.8931-3.0381.9463 0 1.7847.1992 2.3823.7139l.6973-.8467h1.8177zm.7388 7.2051h1.5273c.2407 1.0376 1.1123 1.5605 2.4321 1.5605 1.27 0 2.0254-.4814 2.0254-1.4111 0-.7388-.4897-1.1455-1.7847-1.4941l-1.2368-.332c-1.9258-.5146-2.7144-1.353-2.7144-2.6812 0-1.8843 1.5771-2.7144 3.4282-2.7144 2.0254 0 3.5361 1.0044 3.6108 2.6978h-1.5273c-.0498-.8799-.8467-1.4194-2.1333-1.4194-1.104 0-1.9175.3984-1.9175 1.3364 0 .9463.8135 1.2783 2.0088 1.6104l1.1953.332c1.5771.4399 2.5483 1.1123 2.5483 2.6313 0 1.7266-1.3198 2.7227-3.4697 2.7227-2.2327-.0001-3.7601-1.0211-3.9925-2.8389zm-.3901-8.0933v-1.2119h7.3794v1.2119zm11.2973 9.1392h-.0498v1.5854h-1.4111v-9.5376h1.4609v5.3789c0 1.8179 1.1372 2.9302 2.7393 2.9302 1.1787 0 2.1582-.606 2.1582-2.2744v-6.0347h1.4609v6.2505c0 2.1914-1.3115 3.3867-3.3286 3.3867-1.4111 0-2.374-.5893-3.0298-1.685z"
        fill="#fff" />
</svg>