<svg enable-background="new 0 0 27 43" height="43" viewBox="0 0 27 43" width="27" xmlns="http://www.w3.org/2000/svg">
    <path d="m0 0h27v43h-27z" fill="none" />
    <path
        d="m.2762 24.3621h1.5273c.2412 1.0371 1.1123 1.5605 2.4326 1.5605 1.2695 0 2.0254-.4824 2.0254-1.4121 0-.7383-.4902-1.1445-1.7852-1.4941l-1.2363-.332c-1.9258-.5137-2.7148-1.3525-2.7148-2.6807 0-1.8838 1.5771-2.7139 3.4287-2.7139 2.0254 0 3.5361 1.0039 3.6104 2.6973h-1.5274c-.0498-.8799-.8467-1.4199-2.1328-1.4199-1.1045 0-1.918.3984-1.918 1.3369 0 .9463.8135 1.2783 2.0088 1.6104l1.1953.332c1.5771.4395 2.5488 1.1123 2.5488 2.6309 0 1.7266-1.3203 2.7227-3.4697 2.7227-2.2334-.0001-3.7607-1.0206-3.9931-2.838zm3.7519-9.0156c0-.4141-.1162-.5557-.6055-.5557h-.4316v-1.2197h1.3281c.7383 0 1.0869.3984 1.0869 1.0625v.4229h2.7314v1.2119h-4.1093zm10.418 5.1465c0-1.3857-.8633-1.917-2.0176-1.917-1.2617 0-2.042.6396-2.125 1.751h-1.5107c.125-1.9082 1.5693-3.0371 3.6357-3.0371 2.0254 0 3.4785 1.0869 3.4785 3.2031v6.5h-1.4609zm3.9346 3.2129v-6.25h1.4609v6.0341c0 1.6689.9795 2.2744 2.1582 2.2744 1.6016 0 2.7393-1.1123 2.7393-2.9297v-5.3789h1.4609v9.5371h-1.4111v-1.5859h-.0498c-.6562 1.0957-1.6191 1.6855-3.0303 1.6855-2.0166.0001-3.3281-1.1952-3.3281-3.3866z"
        fill="#fff" />
</svg>