<svg enable-background="new 0 0 78 44" height="44" viewBox="0 0 78 44" width="78" xmlns="http://www.w3.org/2000/svg">
    <path d="m0 0h78v44h-78z" fill="none" />
    <path
        d="m0 23.5979v-4.3301h1.0312v4.3301c0 1.0371.7031 1.6289 1.7227 1.6289.9727 0 1.7285-.6035 1.7285-1.6289v-4.3301h1.0312v4.3301c0 1.5938-1.2129 2.543-2.7598 2.543-1.6171-.0001-2.7538-.961-2.7538-2.543zm6.8613.5449h1.0781c.1699.7324.7852 1.1016 1.7168 1.1016.8965 0 1.4297-.3398 1.4297-.9961 0-.5215-.3457-.8086-1.2598-1.0547l-.873-.2344c-1.3594-.3633-1.916-.9551-1.916-1.8926 0-1.3301 1.1133-1.916 2.4199-1.916 1.4297 0 2.4961.709 2.5488 1.9043h-1.0781c-.0352-.6211-.5977-1.002-1.5059-1.002-.7793 0-1.3535.2812-1.3535.9434 0 .668.5742.9023 1.418 1.1367l.8438.2344c1.1133.3105 1.7988.7852 1.7988 1.8574 0 1.2188-.9316 1.9219-2.4492 1.9219-1.5762 0-2.6543-.7207-2.8184-2.0039zm-.2754-6.5684h5.209v.8555h-5.209zm7.0313 6.1465c0-.8379.2344-1.3594.9316-1.6172v-.0352h-1.3711v-.3457c0-1.582 1.2305-2.5723 2.959-2.5723 1.5996 0 2.8477.8438 2.8477 2.5547v4.2949h-1.0312v-4.1777c0-1.1895-.6797-1.7637-1.8574-1.7637-1.0957 0-1.8691.4922-1.9336 1.3945h1.5586v.7148c-.8086.1465-1.0723.5566-1.0723 1.3711v2.4609h-1.0312v-2.2791zm10.4355-2.3086c0-.9785-.6094-1.3535-1.4238-1.3535-.8906 0-1.4414.4512-1.5 1.2363h-1.0664c.0879-1.3477 1.1074-2.1445 2.5664-2.1445 1.4297 0 2.4551.7676 2.4551 2.2617v4.5879h-1.0312v-4.5879zm2.4258 2.7305h1.0781c.1699.7324.7852 1.1016 1.7168 1.1016.8965 0 1.4297-.3398 1.4297-.9961 0-.5215-.3457-.8086-1.2598-1.0547l-.873-.2344c-1.3594-.3633-1.916-.9551-1.916-1.8926 0-1.3301 1.1133-1.916 2.4199-1.916 1.4297 0 2.4961.709 2.5488 1.9043h-1.0781c-.0352-.6211-.5977-1.002-1.5059-1.002-.7793 0-1.3535.2812-1.3535.9434 0 .668.5742.9023 1.418 1.1367l.8438.2344c1.1133.3105 1.7988.7852 1.7988 1.8574 0 1.2188-.9316 1.9219-2.4492 1.9219-1.5762 0-2.6543-.7207-2.8184-2.0039zm6.6328-.4395v-.5918c0-.6914.334-1.1895.627-1.6172.2227-.3281.375-.627.375-.9141 0-.3691-.2461-.4805-.5977-.4805-.1934 0-.3574.0352-.5215.0938v-.8965c.1055-.041.3574-.0879.6797-.0879.9258 0 1.4355.375 1.4355 1.2363 0 .5098-.1816.8965-.4629 1.3242-.252.3867-.5156.7969-.5156 1.3418v.6035c0 .9258.5391 1.5293 1.5469 1.5293 1.002 0 1.5938-.6035 1.5938-1.5293v-.8496c0-.709-.4629-1.1133-1.1426-1.1133h-.2578v-.867h.2578c.5918 0 1.0605-.4453 1.0605-1.0547v-.5625h1.0312v.5625c0 .8262-.3809 1.2129-.9902 1.4531v.0469c.668.1699 1.0605.709 1.0605 1.5352v.8379c0 1.4883-1.0371 2.4434-2.6309 2.4434-1.5995-.0001-2.5487-.9552-2.5487-2.4435zm4.1485-7.3183h1.0312v2.0449h-1.0312zm2.4902 7.7637h1.0078c.1992.668.75 1.0957 1.623 1.0957 1.2832 0 1.9336-1.0078 1.9336-2.5898 0-1.623-.6855-2.6016-1.916-2.6016-.873 0-1.5586.4453-1.7168 1.3125h-.9844c.1992-1.3418 1.1895-2.2148 2.707-2.2148 1.8164 0 2.9531 1.3301 2.9531 3.4805 0 2.0625-1.043 3.5156-2.9473 3.5156-1.4471-.0001-2.3963-.7911-2.66-1.9981zm6.8262.0234c0-.8496.5156-1.4707 1.3184-1.6992v-.0352c-.7031-.1641-1.1426-.7852-1.1426-1.541 0-.9609.709-1.6289 1.7402-1.6289h1.3594v.9023h-1.1543c-.5918 0-.9727.3691-.9727.9141 0 .5918.4453.9199.9844.9199h1.1426v.8906h-.9844c-.7324 0-1.166.4512-1.166 1.0781 0 .6973.5273 1.1191 1.1895 1.1191h2.1797v-5.8242h1.0312v6.7324h-3.5918c-1.084.0001-1.9336-.7323-1.9336-1.828zm7.4121.2344v-5.1387h1.0312v5.1387c0 .5977.1641.7559.6621.7559.0938 0 .2109-.0059.3164-.0176v.8613c-.0879.0176-.2871.0293-.3047.0293-1.3359 0-1.705-.416-1.705-1.6289zm3.4805-5.1387h1.0312v2.2148h1.6699c1.084 0 1.623-.5449 1.623-1.752v-.4629h1.0312v.4629c0 1.2188-.4277 1.8867-1.3828 2.1094v.0234c1.0723.1641 1.3828.7969 1.3828 1.8516v2.2852h-1.0311v-2.1504c0-1.0078-.3926-1.4531-1.4766-1.4531h-1.8164v3.6035h-1.0312zm6.7851 4.916c0-1.043.6094-1.7988 2.1152-1.9277l2.4082-.2051v-.6328c0-.8906-.6152-1.3535-1.5996-1.3535-.9551 0-1.6172.4336-1.7051 1.2305h-1.043c.0645-1.3652 1.1836-2.1445 2.748-2.1445 1.5059 0 2.6309.7207 2.6309 2.2324v4.6172h-1.0312v-3.0645l-2.209.1875c-.6855.0586-1.2715.3398-1.2715 1.0605 0 .6094.416 1.002 1.2891 1.002.2812 0 .5508-.041.8145-.123v.8555c-.3457.1113-.6973.1699-1.0547.1699-1.1133-.0001-2.0918-.5802-2.0918-1.9044zm.3457-6.6094h2.5371v-.8379h1.0312v.8379h.6094v-.8379h1.0312v1.6934h-5.209v-.8555zm6.709 5.4551v-.6973h2.6367v.8496h-1.5938v.0703c0 1.248.7852 1.9805 1.9395 1.9805 1.3477 0 2.0508-.9961 2.0508-2.584 0-1.623-.7324-2.584-2.0566-2.584-.8906 0-1.6699.4336-1.8398 1.3008h-1.043c.2637-1.459 1.4473-2.2148 2.8828-2.2148 1.9043 0 3.0996 1.3301 3.0996 3.498 0 2.0566-1.0723 3.498-3.0879 3.498-1.8223.0001-2.9883-1.1542-2.9883-3.1171z"
        fill="#fff" />
</svg>