<svg enable-background="new 0 0 81 43" height="43" viewBox="0 0 81 43" width="81" xmlns="http://www.w3.org/2000/svg">
    <path d="m0 0h81v43h-81z" fill="none" />
    <path
        d="m4.6401 27v-10.6333h-3.8598v-1.3447h9.2139v1.3447h-3.8599v10.6333zm11.1231 0-4.416-11.978h1.5688l3.5195 10.0439h.1328l3.5195-10.0439h1.5688l-4.4159 11.978zm13.0986-2.2578v-7.2798h1.4609v7.2798c0 .8467.2324 1.0708.938 1.0708.1328 0 .2988-.0083.4482-.0249v1.2202c-.1245.0249-.4067.0415-.4316.0415-1.8925 0-2.4155-.5894-2.4155-2.3076zm4.1504 0v-7.2798h1.4609v7.2798c0 .8467.2324 1.0708.938 1.0708.1328 0 .2988-.0083.4482-.0249v1.2202c-.1245.0249-.4067.0415-.4316.0415-1.8925 0-2.4155-.5894-2.4155-2.3076zm4.1172-.3154c0-1.4775.8633-2.5483 2.9966-2.731l3.4116-.2905v-.8965c0-1.2617-.8716-1.9175-2.2661-1.9175-1.353 0-2.291.6143-2.4155 1.7432h-1.4775c.0913-1.9341 1.6768-3.0381 3.8931-3.0381 2.1333 0 3.7271 1.021 3.7271 3.1626v6.541h-1.4609v-4.3413l-3.1294.2656c-.9712.083-1.8013.4814-1.8013 1.5024 0 .8633.5894 1.4194 1.8262 1.4194.3984 0 .7803-.0581 1.1538-.1743v1.2119c-.4897.1577-.9878.2407-1.4941.2407-1.5774.0001-2.9636-.8217-2.9636-2.6976zm11.8286-3.1626c-1.3115 0-2.0503-.4316-2.0503-1.8262v-.4067h1.4443v.3237c0 .5811.2739.6973.7388.6973h1.8594v1.2119zm0 5.0219c-1.3115 0-2.0503-.4316-2.0503-1.8262v-.4067h1.4443v.3237c0 .5811.2739.6973.7388.6973h1.8594v1.2119zm3.7354-2.6894v-6.1343h1.4609v6.1343c0 1.4692.9961 2.3076 2.4404 2.3076 1.3779 0 2.4487-.855 2.4487-2.3076v-6.1343h1.4609v6.1343c0 2.2578-1.7183 3.6025-3.9097 3.6025-2.2909 0-3.9012-1.3613-3.9012-3.6025zm4.5737-7.3213v-.9214c0-.415-.1162-.5562-.606-.5562h-.4316v-1.2202h1.3281c.7388 0 1.0874.3984 1.0874 1.0625v.4233h2.731v1.2119h-4.1089zm10.4175 10.7246v-6.4995c0-1.3862-.8633-1.9175-2.0171-1.9175-1.2617 0-2.042.6392-2.125 1.7515h-1.5107c.1245-1.9092 1.5688-3.0381 3.6357-3.0381 2.0254 0 3.478 1.0874 3.478 3.2041v6.4995zm3.9345-3.2871v-6.2505h1.4609v6.0347c0 1.6685.9795 2.2744 2.1582 2.2744 1.6021 0 2.7393-1.1123 2.7393-2.9302v-5.3789h1.4609v9.5376h-1.4111v-1.5854h-.0498c-.6558 1.0957-1.6187 1.6851-3.0298 1.6851-2.017-.0001-3.3286-1.1954-3.3286-3.3868z"
        fill="#fff" />
</svg>