<svg enable-background="new 0 0 103 43" height="43" viewBox="0 0 103 43" width="103" xmlns="http://www.w3.org/2000/svg">
    <path d="m0 0h103v43h-103z" fill="none" />
    <path
        d="m1.4194 24.7422v-7.2798h1.4609v7.2798c0 .8467.2324 1.0708.938 1.0708.1328 0 .2988-.0083.4482-.0249v1.2202c-.1245.0249-.4067.0415-.4316.0415-1.8925 0-2.4155-.5894-2.4155-2.3076zm5.2129-.4483v-.5063c0-.3569-.1826-.415-.3901-.415-.1162 0-.2573.0166-.4233.0498v-1.2784c.3486-.0913.6226-.1079.8218-.1079.7056 0 1.4526.2158 1.4526 1.2202v.8218c0 1.1704.6392 1.6934 1.7681 1.6934 1.627 0 2.7974-1.0957 2.7974-2.9302v-1.6021c0-1.5024-.7554-2.6562-2.6978-2.6562-1.3364 0-2.3408.5479-2.54 1.5024h-1.4776c.249-1.8013 1.876-2.7891 4.0757-2.7891 2.7974 0 4.1006 1.6021 4.1006 3.8682v5.8355h-1.4609v-1.5854h-.0498c-.6226 1.021-1.71 1.6851-3.0879 1.6851-1.7101-.0001-2.8888-1.0294-2.8888-2.8058zm10.3677 2.7061v-7.6865c0-.4814-.1328-.6226-.5728-.6226-.1079 0-.332.0083-.3984.0166v-1.2202c.1826-.0249.498-.0332.689-.0332 1.3115 0 1.71.4067 1.71 1.7764v5.4204h.0498l2.2827-5.7773h1.187l2.1582 5.7773h.0498v-7.1885h1.4277v9.5376h-1.8013l-2.457-6.2837h-.0664l-2.457 6.2837zm15.813 0v-6.4995c0-1.3862-.8633-1.9175-2.0171-1.9175-1.2617 0-2.042.6392-2.125 1.7515h-1.5107c.1245-1.9092 1.5688-3.0381 3.6357-3.0381 2.0254 0 3.478 1.0874 3.478 3.2041v6.4995zm5.4868-5.7358c-1.3115 0-2.0503-.4316-2.0503-1.8262v-.4067h1.4443v.3237c0 .5811.2739.6973.7388.6973h1.8594v1.2119zm0 5.0219c-1.3115 0-2.0503-.4316-2.0503-1.8262v-.4067h1.4443v.3237c0 .5811.2739.6973.7388.6973h1.8594v1.2119zm3.7852.7139v-9.5376h1.4609v1.5854h.0498c.6309-1.0542 1.5522-1.6851 2.9468-1.6851 2.0005 0 3.395 1.2368 3.395 3.4365v6.2008h-1.4609v-5.96c0-1.6685-.9629-2.3491-2.2827-2.3491-1.6187 0-2.6479 1.0957-2.6479 2.9302v5.3789zm.4731-10.7246v-1.2119h5.9102v-1.187h1.4692v2.3989zm5.9185-3.8v-2.897h1.4609v2.897zm15.5722 11.0964h-4.7646l-1.2036 3.4282h-1.5688l4.416-11.978h1.4775l4.416 11.978h-1.5688zm-4.3247-1.27h3.8848l-1.876-5.3457h-.1328zm17.1328.2241c0 2.7974-1.4858 4.6318-3.7603 4.6318-1.2783 0-2.3076-.5562-2.7974-1.5024h-.1328v4.333h-1.4277v-11.9365h1.3613v1.4941h.1328c.5728-1.0293 1.6436-1.6519 2.8638-1.6519 2.2828 0 3.7603 1.8179 3.7603 4.6319zm-1.4775 0c0-2.0918-.9795-3.3452-2.6147-3.3452-1.6187 0-2.6396 1.2866-2.6396 3.3452 0 2.0503 1.021 3.3452 2.6313 3.3452 1.6435 0 2.623-1.2534 2.623-3.3452zm11.8369 0c0 2.7974-1.4858 4.6318-3.7603 4.6318-1.2783 0-2.3076-.5562-2.7974-1.5024h-.1328v4.333h-1.4277v-11.9365h1.3613v1.4941h.1328c.5728-1.0293 1.6436-1.6519 2.8638-1.6519 2.2828 0 3.7603 1.8179 3.7603 4.6319zm-1.4775 0c0-2.0918-.9795-3.3452-2.6147-3.3452-1.6187 0-2.6396 1.2866-2.6396 3.3452 0 2.0503 1.021 3.3452 2.6313 3.3452 1.6435 0 2.623-1.2534 2.623-3.3452zm3.8017-8.0269h1.4277v12.501h-1.4277zm11.5547 10.1851c-.415 1.5273-1.8096 2.4736-3.7686 2.4736-2.4819 0-4.0342-1.793-4.0342-4.6235 0-2.814 1.5771-4.6401 4.0342-4.6401 2.4155 0 3.8848 1.7183 3.8848 4.499v.5479h-6.4331v.0664c.0747 1.7681 1.0625 2.8887 2.5815 2.8887 1.1538 0 1.9341-.4233 2.3076-1.2119h1.4278zm-6.3169-2.897h4.9307c-.0332-1.5854-.9795-2.6313-2.3989-2.6313-1.4278 0-2.4239 1.0459-2.5318 2.6313z"
        fill="#fff" />
</svg>