<svg enable-background="new 0 0 19 44" height="44" viewBox="0 0 19 44" width="19" xmlns="http://www.w3.org/2000/svg">
    <path d="m0 0h19v44h-19z" fill="none" />
    <path
        d="m.4324 24.1361h1.0781c.1699.7324.7852 1.1016 1.7168 1.1016.8965 0 1.4297-.3398 1.4297-.9961 0-.5215-.3457-.8086-1.2598-1.0547l-.873-.2344c-1.3594-.3633-1.916-.9551-1.916-1.8926 0-1.3301 1.1133-1.916 2.4199-1.916 1.4297 0 2.4961.709 2.5488 1.9043h-1.0781c-.0352-.6211-.5977-1.002-1.5059-1.002-.7793 0-1.3535.2812-1.3535.9434 0 .668.5742.9023 1.418 1.1367l.8438.2344c1.1133.3105 1.7988.7852 1.7988 1.8574 0 1.2188-.9316 1.9219-2.4492 1.9219-1.5762 0-2.6543-.7207-2.8184-2.0039zm2.6485-6.3633c0-.293-.082-.3926-.4277-.3926h-.3048v-.8613h.9375c.5215 0 .7676.2812.7676.75v.2988h1.9277v.8555h-2.9003zm7.3535 3.6328c0-.9785-.6094-1.3535-1.4238-1.3535-.8906 0-1.4414.4512-1.5 1.2363h-1.0665c.0879-1.3477 1.1074-2.1445 2.5664-2.1445 1.4297 0 2.4551.7676 2.4551 2.2617v4.5879h-1.0312zm2.7773 2.2676v-4.4121h1.0312v4.2598c0 1.1777.6914 1.6055 1.5234 1.6055 1.1309 0 1.9336-.7852 1.9336-2.0684v-3.7969h1.0312v6.7324h-.9961v-1.1191h-.035c-.4629.7734-1.1426 1.1895-2.1387 1.1895-1.4238-.0001-2.3496-.8438-2.3496-2.3907z"
        fill="#fff" />
</svg>